<?xml version="1.0" encoding="UTF-8" standalone="no"?>
<!-- Created with Inkscape (http://www.inkscape.org/) -->

<svg
   xmlns:dc="http://purl.org/dc/elements/1.1/"
   xmlns:cc="http://creativecommons.org/ns#"
   xmlns:rdf="http://www.w3.org/1999/02/22-rdf-syntax-ns#"
   xmlns:svg="http://www.w3.org/2000/svg"
   xmlns="http://www.w3.org/2000/svg"
   xmlns:sodipodi="http://sodipodi.sourceforge.net/DTD/sodipodi-0.dtd"
   xmlns:inkscape="http://www.inkscape.org/namespaces/inkscape"
   version="1.2"
   width="600.13037"
   height="200.50591"
   id="svg4266"
   inkscape:version="0.48.2 r9819"
   sodipodi:docname="ihtsdo-strapline_white.eps">
  <sodipodi:namedview
     pagecolor="#ffffff"
     bordercolor="#666666"
     borderopacity="1"
     objecttolerance="10"
     gridtolerance="10"
     guidetolerance="10"
     inkscape:pageopacity="1"
     inkscape:pageshadow="2"
     inkscape:window-width="1280"
     inkscape:window-height="962"
     id="namedview3101"
     showgrid="false"
     inkscape:zoom="2"
     inkscape:cx="309.45283"
     inkscape:cy="79.063303"
     inkscape:window-x="1358"
     inkscape:window-y="-8"
     inkscape:window-maximized="1"
     inkscape:current-layer="svg4266"
     fit-margin-left="40"
     fit-margin-top="0"
     fit-margin-right="0"
     fit-margin-bottom="0" />
  <defs
     id="defs3" />
  <metadata
     id="metadata4">
    <rdf:RDF>
      <cc:Work
         rdf:about="">
        <dc:format>image/svg+xml</dc:format>
        <dc:type
           rdf:resource="http://purl.org/dc/dcmitype/StillImage" />
        <dc:title></dc:title>
      </cc:Work>
    </rdf:RDF>
  </metadata>
  <rect
     style="fill:#ffffff;fill-opacity:1;fill-rule:evenodd;stroke:#ffffff;stroke-width:0.98642534000000004px;stroke-linecap:butt;stroke-linejoin:miter;stroke-opacity:1"
     id="rect3105"
     width="558.5"
     height="198.98566"
     x="40.493214"
     y="1.0059047" />
  <g
     id="g2989"
     transform="matrix(0.25,0,0,0.25,343.59679,11.276689)">
    <path
       inkscape:connector-curvature="0"
       style="fill:#ffffff;fill-opacity:1;fill-rule:evenodd;stroke:none"
       id="path2991"
       d="m -56.364668,-45.106756 0,802.023596 1082.499068,0 0,-802.023596 -1082.499068,0 z" />
    <path
       inkscape:connector-curvature="0"
       style="fill:#1d2b7d;fill-opacity:1;fill-rule:evenodd;stroke:none"
       id="path2993"
       d="m 480.42079,508.47677 -3.84908,40.44857 11.26558,1.66125 3.58621,-38.11536 -11.00271,-3.99446 z" />
    <path
       inkscape:connector-curvature="0"
       style="fill:#a30046;fill-opacity:1;fill-rule:evenodd;stroke:none"
       id="path2995"
       d="m 191.90921,221.41565 0,26.13615 26.14554,0 0,-26.13615 -26.14554,0 z" />
    <path
       inkscape:connector-curvature="0"
       style="fill:#a30046;fill-opacity:1;fill-rule:evenodd;stroke:none"
       id="path2997"
       d="m 287.25359,423.2855 0,34.11594 34.24737,0 0,-34.11594 -34.24737,0 z" />
    <path
       inkscape:connector-curvature="0"
       style="fill:#a30046;fill-opacity:1;fill-rule:evenodd;stroke:none"
       id="path2999"
       d="m 528.01787,183.12205 0,27.0374 26.13616,0 0,-27.0374 -26.13616,0 z" />
    <path
       inkscape:connector-curvature="0"
       style="fill:#1d2b7d;fill-opacity:1;fill-rule:evenodd;stroke:none"
       id="path3001"
       d="m 213.91464,370.6189 0,30.64239 30.64239,0 0,-30.64239 -30.64239,0 z" />
    <path
       inkscape:connector-curvature="0"
       style="fill:#1d2b7d;fill-opacity:1;fill-rule:evenodd;stroke:none"
       id="path3003"
       d="m 392.32393,279.59299 0,40.5561 41.45734,0 0,-40.5561 -41.45734,0 z" />
    <path
       inkscape:connector-curvature="0"
       style="fill:#0c6db7;fill-opacity:1;fill-rule:evenodd;stroke:none"
       id="path3005"
       d="m 497.54447,117.9131 0,30.64239 30.66116,0 0,-30.64239 -30.66116,0 z" />
    <path
       inkscape:connector-curvature="0"
       style="fill:#0c6db7;fill-opacity:1;fill-rule:evenodd;stroke:none"
       id="path3007"
       d="m 317.76454,278.84195 0,40.5561 40.5561,0 0,-40.5561 -40.5561,0 z" />
    <path
       inkscape:connector-curvature="0"
       style="fill:#0c6db7;fill-opacity:1;fill-rule:evenodd;stroke:none"
       id="path3009"
       d="m 539.37734,371.87689 0,25.81696 26.13615,0 0,-25.81696 -26.13615,0 z" />
    <path
       inkscape:connector-curvature="0"
       style="fill:#c7dbf1;fill-opacity:1;fill-rule:evenodd;stroke:none"
       id="path3011"
       d="m 247.11056,279.89341 0,39.67363 39.46709,0 0,-39.67363 -39.46709,0 z" />
    <path
       inkscape:connector-curvature="0"
       style="fill:#c7dbf1;fill-opacity:1;fill-rule:evenodd;stroke:none"
       id="path3013"
       d="m 253.99196,144.34028 0,24.33366 24.33366,0 0,-24.33366 -24.33366,0 z" />
    <path
       inkscape:connector-curvature="0"
       style="fill:#c7dbf1;fill-opacity:1;fill-rule:evenodd;stroke:none"
       id="path3015"
       d="m 480.42079,365.86858 0,31.54364 31.54363,0 0,-31.54364 -31.54363,0 z" />
    <path
       inkscape:connector-curvature="0"
       style="fill:#c7dbf1;fill-opacity:1;fill-rule:evenodd;stroke:none"
       id="path3017"
       d="m 344.27622,499.89147 0,25.19735 25.19735,0 0,-25.19735 -25.19735,0 z" />
    <path
       inkscape:connector-curvature="0"
       style="fill:#00a4e6;fill-opacity:1;fill-rule:evenodd;stroke:none"
       id="path3019"
       d="m 376.83375,348.80122 0,35.14862 35.14862,0 0,-35.14862 -35.14862,0 z" />
    <path
       inkscape:connector-curvature="0"
       style="fill:#00a4e6;fill-opacity:1;fill-rule:evenodd;stroke:none"
       id="path3021"
       d="m 420.33768,187.27154 0,40.5561 40.5561,0 0,-40.5561 -40.5561,0 z" />
    <path
       inkscape:connector-curvature="0"
       style="fill:#72adde;fill-opacity:1;fill-rule:evenodd;stroke:none"
       id="path3023"
       d="m 297.26118,184.9621 0,31.54363 31.54363,0 0,-31.54363 -31.54363,0 z" />
    <path
       inkscape:connector-curvature="0"
       style="fill:#72adde;fill-opacity:1;fill-rule:evenodd;stroke:none"
       id="path3025"
       d="m 406.51856,130.493 0,27.93865 27.93865,0 0,-27.93865 -27.93865,0 z" />
    <path
       inkscape:connector-curvature="0"
       style="fill:#72adde;fill-opacity:1;fill-rule:evenodd;stroke:none"
       id="path3027"
       d="m 445.34727,476.55294 0,21.29195 21.62992,0 0,-21.29195 -21.62992,0 z" />
    <path
       inkscape:connector-curvature="0"
       style="fill:#1d2b7d;fill-opacity:1;fill-rule:nonzero;stroke:#1d2b7d;stroke-width:0.01877597px;stroke-linecap:butt;stroke-linejoin:round;stroke-opacity:1;stroke-dasharray:none"
       id="path3029"
       d="m 336.69072,219.04048 139.37404,139.4867 -3.52988,3.54866 -139.37404,-139.50547 z" />
    <path
       inkscape:connector-curvature="0"
       style="fill:#1d2b7d;fill-opacity:1;fill-rule:nonzero;stroke:#1d2b7d;stroke-width:0.03755194px;stroke-linecap:butt;stroke-linejoin:round;stroke-opacity:1;stroke-dasharray:none"
       id="path3031"
       d="m 625.05209,176.71944 -4.46868,40.70631 11.19048,1.20166 4.46868,-40.7063 z" />
    <path
       inkscape:connector-curvature="0"
       style="fill:#1d2b7d;fill-opacity:1;fill-rule:evenodd;stroke:none"
       id="path3033"
       d="m 423.96144,281.60202 c 53.24865,-54.1499 141.64593,-56.36546 197.48567,-4.99441 l -5.67035,5.783 c -52.57272,-48.17914 -135.71272,-46.11378 -185.88211,4.65644 z" />
    <path
       inkscape:connector-curvature="0"
       style="fill:#1d2b7d;fill-opacity:1;fill-rule:nonzero;stroke:#1d2b7d;stroke-width:0.03755194px;stroke-linecap:butt;stroke-linejoin:round;stroke-opacity:1;stroke-dasharray:none"
       id="path3035"
       d="m 487.27402,526.89132 6.83445,1.80249 7.17242,1.57718 7.20997,1.27677 7.20998,0.93879 7.20997,0.63839 7.17242,0.37552 7.20997,0 7.13487,-0.22531 7.13487,-0.56328 7.05977,-0.82615 7.02221,-1.12655 6.98466,-1.42698 6.90956,-1.68984 6.7969,-1.9527 6.7218,-2.21556 6.64669,-2.51598 6.57159,-2.77885 6.42139,-3.0417 6.30872,-3.30457 6.15852,-3.52989 6.08342,-3.79274 5.89565,-4.05561 5.74545,-4.28092 5.59524,-4.54379 5.40748,-4.7691 5.25727,-5.03196 5.06951,-5.21972 4.8442,-5.44503 4.65644,-5.70789 4.46868,-5.93321 4.20582,-6.12097 4.01806,-6.34628 4.46868,-7.84835 4.05561,-8.07367 3.64254,-8.14877 3.19191,-8.22388 2.7413,-8.37408 2.32822,-8.37408 1.87759,-8.44919 1.50208,-8.52429 1.05146,-8.48674 0.63838,-8.52429 0.22531,-8.52429 -0.15021,-8.48674 -0.56328,-8.44919 -0.97635,-8.37408 -1.38942,-8.33653 -1.76494,-8.22388 -2.14046,-8.14877 -2.55353,-8.03612 -2.92905,-7.88591 -3.26702,-7.77325 -3.68009,-7.58549 -4.05561,-7.39773 -4.39358,-7.24753 -4.80665,-7.02221 -5.10706,-6.7969 -5.52014,-6.57159 -5.82055,-6.30873 -6.19607,-6.04586 -6.57159,-5.783 -6.87201,-5.44503 -7.24752,-5.18217 -7.54794,-4.80665 -8.07367,12.655 6.90956,4.39358 6.60914,4.69399 6.30873,4.99441 5.97075,5.21972 5.67035,5.52014 5.36993,5.74545 5.03196,5.97075 4.69399,6.19608 4.39358,6.42138 4.01805,6.60914 3.71765,6.75935 3.37967,6.90956 3.00416,7.09731 2.70374,7.20998 2.32822,7.32263 1.99025,7.47283 1.65229,7.51039 1.23921,7.62305 0.9388,7.69814 0.52573,7.7357 0.18776,7.73571 -0.22532,7.8108 -0.56328,7.8108 -0.93879,7.77326 -1.35187,7.77325 -1.72739,7.7357 -2.10291,7.69815 -2.51598,7.66059 -2.8915,7.54794 -3.30457,7.51039 -3.68009,7.36018 -4.16827,7.28508 -3.64254,5.82055 -3.86785,5.63279 -4.05561,5.44503 -4.28092,5.21972 -4.43113,4.99441 -4.65644,4.8442 -4.7691,4.58134 -4.95685,4.39358 -5.14462,4.16826 -5.25727,3.90541 -5.36993,3.71764 -5.55769,3.49233 -5.63279,3.26702 -5.783,3.00415 -5.89565,2.8164 -5.97076,2.55353 -6.08342,2.29067 -6.15851,2.06536 -6.23363,1.80249 -6.30872,1.53963 -6.34628,1.31432 -6.42138,1.0139 -6.45894,0.78859 -6.53404,0.52573 -6.53403,0.22531 -6.53404,0 -6.57159,-0.30042 -6.60914,-0.56327 -6.57159,-0.8637 -6.57159,-1.12656 -6.53404,-1.42697 -6.87201,-1.80249 z" />
    <path
       inkscape:connector-curvature="0"
       style="fill:#1d2b7d;fill-opacity:1;fill-rule:nonzero;stroke:#1d2b7d;stroke-width:0.01877597px;stroke-linecap:butt;stroke-linejoin:round;stroke-opacity:1;stroke-dasharray:none"
       id="path3037"
       d="m 395.94769,412.37666 1.42697,3.71765 1.61474,3.81152 1.70861,3.75519 1.80249,3.71765 1.91515,3.66131 2.02781,3.62376 2.12168,3.56744 2.21557,3.5111 2.34699,3.45478 2.40333,3.37968 2.51598,3.34212 2.62863,3.26702 2.70374,3.21069 2.8164,3.15436 2.87272,3.06049 3.00416,3.00415 7.07854,-7.07854 -2.77884,-2.79762 -2.72252,-2.8915 -2.62864,-2.91027 -2.53475,-3.00416 -2.44088,-3.06048 -2.36577,-3.11681 -2.27189,-3.17314 -2.15924,-3.21069 -2.08413,-3.26702 -1.99026,-3.32335 -1.87759,-3.3609 -1.8025,-3.436 -1.68983,-3.45478 -1.59596,-3.51111 -1.4833,-3.52988 -1.44575,-3.71764 z" />
  </g>
  <flowRoot
     style="font-size:40px;font-style:normal;font-weight:normal;line-height:125%;letter-spacing:0px;word-spacing:0px;fill:#000000;fill-opacity:1;stroke:none;font-family:Sans"
     xml:space="preserve"
     id="flowRoot4472"
     transform="translate(-52.006787,-70.680662)"><flowRegion
       id="flowRegion4474"><rect
         id="rect4476"
         y="104.33401"
         x="156.06857"
         height="56.063465"
         width="121.72338" /></flowRegion><flowPara
       id="flowPara4478" /></flowRoot>  <text
     sodipodi:linespacing="125%"
     style="font-size:34.56024551px;font-style:normal;font-weight:normal;line-height:125%;letter-spacing:0px;word-spacing:0px;fill:#000000;fill-opacity:1;stroke:none;font-family:Sans"
     xml:space="preserve"
     id="text4480"
     transform="scale(0.96703634,1.0340873)"
     y="65.797295"
     x="115.42888"><tspan
       style="font-size:27.64819908px;font-style:normal;font-variant:normal;font-weight:normal;font-stretch:normal;font-family:Lucida Sans;-inkscape-font-specification:Lucida Sans"
       id="tspan4482"
       y="65.797295"
       x="115.42888">IHTSDO</tspan></text>
  <text
     sodipodi:linespacing="125%"
     style="font-size:19.12589264px;font-style:normal;font-variant:normal;font-weight:normal;font-stretch:normal;line-height:125%;letter-spacing:0px;word-spacing:0px;fill:#000000;fill-opacity:1;stroke:none;font-family:Lucida Sans;-inkscape-font-specification:Lucida Sans"
     xml:space="preserve"
     id="text4484"
     transform="scale(0.99203997,1.0080239)"
     y="66.772644"
     x="218.71159"><tspan
       id="tspan4486"
       y="66.772644"
       x="218.71159">delivering</tspan></text>
  <text
     sodipodi:linespacing="125%"
     style="font-size:34.79541016px;font-style:normal;font-variant:normal;font-weight:normal;font-stretch:normal;line-height:125%;letter-spacing:0px;word-spacing:0px;fill:#000000;fill-opacity:1;stroke:none;font-family:Lucida Sans;-inkscape-font-specification:Lucida Sans"
     xml:space="preserve"
     id="text4488"
     transform="scale(0.98457447,1.0156672)"
     y="106.81532"
     x="113.67173"><tspan
       id="tspan4490"
       y="106.81532"
       x="113.67173">SNOMED CT</tspan></text>
  <text
     sodipodi:linespacing="125%"
     style="font-size:19.12180138px;font-style:normal;font-variant:normal;font-weight:normal;font-stretch:normal;line-height:125%;letter-spacing:0px;word-spacing:0px;fill:#000000;fill-opacity:1;stroke:none;font-family:Lucida Sans;-inkscape-font-specification:Lucida Sans"
     xml:space="preserve"
     id="text4494"
     transform="scale(0.99598796,1.0040282)"
     y="135.41866"
     x="111.88343"><tspan
       id="tspan4496"
       y="135.41866"
       x="111.88343">the global clinical terminology</tspan></text>
  <text
     sodipodi:linespacing="125%"
     style="font-size:28px;font-style:normal;font-variant:normal;font-weight:normal;font-stretch:normal;line-height:125%;letter-spacing:0px;word-spacing:0px;fill:#000000;fill-opacity:1;stroke:none;font-family:Lucida Sans;-inkscape-font-specification:Lucida Sans"
     xml:space="preserve"
     id="text4498"
     y="103.85895"
     x="314.17352"><tspan
       id="tspan4500"
       y="103.85895"
       x="314.17352" /></text>
  <text
     sodipodi:linespacing="125%"
     style="font-size:28px;font-style:normal;font-variant:normal;font-weight:normal;font-stretch:normal;line-height:125%;letter-spacing:0px;word-spacing:0px;fill:#000000;fill-opacity:1;stroke:none;font-family:Lucida Sans;-inkscape-font-specification:Lucida Sans"
     xml:space="preserve"
     id="text4502"
     y="97.292969"
     x="318.21414"><tspan
       style="font-size:18px"
       id="tspan4506"
       y="97.292969"
       x="318.21414">®</tspan></text>
  <g
     id="layer2"
     style="opacity:0.51626012;display:none"
     transform="translate(-52.006787,-70.680662)">
    <flowRoot
       transform="matrix(0.47495735,0,0,0.47495775,495.52315,135.60889)"
       id="flowRoot4006-0"
       xml:space="preserve"
       style="font-size:36px;font-style:normal;font-variant:normal;font-weight:bold;font-stretch:normal;text-align:start;line-height:125%;letter-spacing:0px;word-spacing:0px;writing-mode:lr-tb;text-anchor:start;fill:#000000;fill-opacity:1;stroke:none;font-family:Lucida Sans Unicode;-inkscape-font-specification:Lucida Sans Unicode Bold"><flowRegion
         id="flowRegion4008-6"><rect
           width="598.29053"
           height="216.18866"
           x="-698"
           y="-46.149597"
           id="rect4010-1"
           style="font-size:36px;font-style:normal;font-variant:normal;font-weight:bold;font-stretch:normal;text-align:start;line-height:125%;writing-mode:lr-tb;text-anchor:start;font-family:Lucida Sans Unicode;-inkscape-font-specification:Lucida Sans Unicode Bold" /></flowRegion><flowPara
         id="flowPara4047-3"
         style="font-size:48.66666794px;font-style:normal;font-variant:normal;font-weight:normal;font-stretch:normal;text-align:start;line-height:125%;writing-mode:lr-tb;text-anchor:start;font-family:Lucida Sans Unicode;-inkscape-font-specification:Lucida Sans Unicode"><flowSpan
           id="flowSpan4057-8"
           style="font-size:56px">IHTSDO</flowSpan><flowSpan
           id="flowSpan4061-9"
           style="font-size:40px"> delivering</flowSpan></flowPara><flowPara
         id="flowPara4049-3"
         style="font-size:72px;font-style:normal;font-variant:normal;font-weight:normal;font-stretch:normal;text-align:start;line-height:125%;writing-mode:lr-tb;text-anchor:start;font-family:Lucida Sans Unicode;-inkscape-font-specification:Lucida Sans Unicode">SNOMED CT®</flowPara><flowPara
         id="flowPara4051-4"
         style="font-size:40px;font-style:normal;font-variant:normal;font-weight:normal;font-stretch:normal;text-align:start;line-height:125%;writing-mode:lr-tb;text-anchor:start;font-family:Lucida Sans Unicode;-inkscape-font-specification:Lucida Sans Unicode">the global clinical terminology</flowPara></flowRoot>  </g>
  <rect
     id="rect3147"
     width="9.5"
     height="9.5"
     x="80.99321"
     y="53.270569"
     style="fill:#72adde;fill-opacity:1" />
  <rect
     id="rect3147-1"
     width="9.5"
     height="9.5"
     x="80.99321"
     y="90.661537"
     style="fill:#a30046;fill-opacity:1" />
  <rect
     id="rect3147-7"
     width="9.5"
     height="9.5"
     x="80.99321"
     y="125.04462"
     style="fill:#0c6db7;fill-opacity:1" />
</svg>
